<svg data-v-423bf9ae="" xmlns="http://www.w3.org/2000/svg" viewBox="0 0 525 90" class="iconLeft"><!----><!----><!----><g data-v-423bf9ae="" id="5e9eb315-32c5-4cea-b28f-4a6c228c5e1f" fill="black" transform="matrix(5.509641699578938,0,0,5.509641699578938,105.81927087839318,-0.31680209826728145)"><path d="M7.32 4.97L7.32 3.09L11.26 3.09L11.26 4.97L10.42 4.97L10.42 13.45L8.15 13.45L3.83 6.75L3.83 11.58L4.70 11.58L4.70 13.45L0.77 13.45L0.77 11.58L1.63 11.58L1.63 4.97L0.79 4.97L0.79 3.09L3.92 3.09L8.20 9.88L8.20 4.97L7.32 4.97ZM17.71 13.45L17.71 11.58L18.74 11.58L18.28 10.09L15.09 10.09L14.63 11.58L15.72 11.58L15.72 13.45L11.79 13.45L11.79 11.58L12.56 11.58L15.39 3.09L18.13 3.09L20.89 11.58L21.64 11.58L21.64 13.45L17.71 13.45ZM16.67 4.97L15.63 8.34L17.73 8.34L16.67 4.97ZM27.00 4.97L27.00 3.09L31.43 3.09L31.43 4.97L30.51 4.97L27.74 13.45L24.94 13.45L22.25 4.97L21.25 4.97L21.25 3.09L25.70 3.09L25.70 4.97L24.59 4.97L26.39 10.85L28.19 4.97L27.00 4.97ZM32.35 4.96L32.35 3.09L36.78 3.09L36.78 4.96L35.69 4.96L35.69 11.58L36.78 11.58L36.78 13.45L32.35 13.45L32.35 11.58L33.42 11.58L33.42 4.96L32.35 4.96ZM46.79 6.24L44.67 6.24Q44.29 5.69 43.98 5.47Q43.67 5.24 43.32 5.14Q42.96 5.04 42.57 5.04L42.57 5.04Q42 5.04 41.51 5.29Q41.02 5.55 40.66 5.99Q40.30 6.43 40.09 7.02Q39.89 7.60 39.89 8.26L39.89 8.26Q39.89 8.92 40.09 9.51Q40.29 10.09 40.65 10.53Q41.00 10.96 41.49 11.22Q41.99 11.48 42.57 11.48L42.57 11.48Q42.98 11.48 43.34 11.34Q43.70 11.21 43.99 10.99Q44.28 10.77 44.50 10.49Q44.71 10.21 44.84 9.90L44.84 9.90L47.04 10.51Q46.83 11.18 46.42 11.75Q46.01 12.33 45.43 12.74Q44.85 13.16 44.13 13.40Q43.41 13.64 42.57 13.64L42.57 13.64Q41.87 13.64 41.23 13.45Q40.58 13.25 40.03 12.91Q39.47 12.56 39.02 12.07Q38.56 11.57 38.24 10.98Q37.92 10.38 37.74 9.69Q37.56 9.00 37.56 8.26L37.56 8.26Q37.56 7.14 37.95 6.17Q38.34 5.20 39.02 4.47Q39.70 3.74 40.61 3.32Q41.52 2.90 42.57 2.90L42.57 2.90Q43.42 2.90 43.99 3.11Q44.56 3.32 45.25 3.93L45.25 3.93L46.79 3.93L46.79 6.24ZM53.84 13.45L53.84 11.58L54.87 11.58L54.41 10.09L51.22 10.09L50.76 11.58L51.85 11.58L51.85 13.45L47.92 13.45L47.92 11.58L48.69 11.58L51.52 3.09L54.26 3.09L57.02 11.58L57.77 11.58L57.77 13.45L53.84 13.45ZM52.80 4.97L51.76 8.34L53.85 8.34L52.80 4.97ZM63.68 6.61L63.68 6.01Q63.65 5.77 63.52 5.56Q63.38 5.35 63.17 5.19Q62.97 5.04 62.70 4.95Q62.44 4.86 62.15 4.86L62.15 4.86Q61.89 4.86 61.67 4.92Q61.44 4.97 61.27 5.08Q61.11 5.20 61.01 5.37Q60.91 5.55 60.91 5.80L60.91 5.80Q60.91 6.10 61.04 6.29Q61.17 6.47 61.38 6.58Q61.59 6.70 61.84 6.77Q62.10 6.84 62.34 6.92L62.34 6.92L64.22 7.55Q64.61 7.68 64.95 7.92Q65.29 8.16 65.54 8.50Q65.79 8.85 65.93 9.29Q66.08 9.73 66.08 10.29L66.08 10.29Q66.08 11.04 65.80 11.66Q65.52 12.28 65.02 12.73Q64.52 13.17 63.83 13.42Q63.13 13.67 62.28 13.67L62.28 13.67Q61.69 13.67 61.16 13.53Q60.63 13.40 60.19 13.15Q59.75 12.89 59.42 12.54Q59.10 12.19 58.91 11.74L58.91 11.74L58.21 11.74L58.21 9.69L60.68 9.69L60.68 10.11Q60.68 10.42 60.78 10.68Q60.88 10.94 61.08 11.13Q61.28 11.32 61.58 11.43Q61.88 11.53 62.28 11.53L62.28 11.53Q62.90 11.53 63.22 11.25Q63.54 10.96 63.54 10.46L63.54 10.46Q63.54 10.20 63.43 10.02Q63.31 9.85 63.14 9.73Q62.96 9.61 62.74 9.53Q62.52 9.45 62.31 9.38L62.31 9.38L60.74 8.87Q60.30 8.74 59.89 8.49Q59.47 8.24 59.15 7.88Q58.84 7.51 58.65 7.01Q58.46 6.51 58.46 5.88L58.46 5.88Q58.46 5.14 58.73 4.56Q59.01 3.99 59.50 3.59Q59.99 3.19 60.67 2.99Q61.35 2.78 62.15 2.78L62.15 2.78Q62.79 2.78 63.33 2.93Q63.87 3.08 64.30 3.32Q64.72 3.57 65.02 3.89Q65.32 4.20 65.47 4.55L65.47 4.55L66.16 4.55L66.16 6.61L63.68 6.61ZM68.99 13.45L68.99 11.58L70.06 11.58L70.06 4.90L68.80 4.90L68.80 6.24L66.58 6.24L66.58 3.09L76.00 3.09L76.00 6.24L73.76 6.24L73.76 4.90L72.33 4.90L72.33 11.58L73.42 11.58L73.42 13.45L68.99 13.45Z"></path></g><!----><g data-v-423bf9ae="" id="99c9a8be-01f2-4e96-b5ef-c8c42a627c01" transform="matrix(1.000668951700262,0,0,1.000668951700262,-4.034199917699631,-5.003385681853274)" stroke="none" fill="black"><path d="M91.25 46.25h-7.72a33.558 33.558 0 00-7.176-17.302l5.466-5.464a3.751 3.751 0 10-5.305-5.305l-5.466 5.466a33.571 33.571 0 00-17.3-7.176V8.75a3.75 3.75 0 00-7.499 0v7.72a33.591 33.591 0 00-17.304 7.176l-5.464-5.466a3.754 3.754 0 00-5.304 0 3.758 3.758 0 000 5.305l5.465 5.464a33.622 33.622 0 00-7.176 17.302H8.75a3.749 3.749 0 100 7.499h7.718a33.632 33.632 0 007.176 17.304l-5.465 5.464a3.75 3.75 0 105.304 5.303l5.464-5.464a33.569 33.569 0 0017.304 7.174v7.72a3.75 3.75 0 007.5 0v-7.72a33.552 33.552 0 0017.3-7.174l5.466 5.464a3.751 3.751 0 005.305-5.303l-5.466-5.464a33.561 33.561 0 007.176-17.304h7.72c2.069 0 3.75-1.681 3.75-3.75s-1.683-3.75-3.752-3.75m-37.5-22.2a26.062 26.062 0 0111.94 4.955L53.75 40.947V24.05zm-7.5 0v16.897L34.31 29.005a26.092 26.092 0 0111.94-4.955M29.007 34.308l11.94 11.942H24.048a26.125 26.125 0 014.959-11.942M24.048 53.75h16.899l-11.94 11.942a26.107 26.107 0 01-4.959-11.942m22.202 22.2a26.05 26.05 0 01-11.94-4.955l11.94-11.942V75.95zM50 54.219a4.22 4.22 0 110-8.438 4.22 4.22 0 010 8.438m3.75 21.731V59.053l11.94 11.942a26.062 26.062 0 01-11.94 4.955m17.243-10.258L59.055 53.75h16.897a26.096 26.096 0 01-4.959 11.942M59.055 46.25l11.938-11.942a26.11 26.11 0 014.958 11.942H59.055z"></path></g><!----></svg>