<?xml version="1.0" encoding="UTF-8"?>
<svg id="Layer_1" xmlns="http://www.w3.org/2000/svg" version="1.1" viewBox="0 0 525 90">
  <!-- Generator: Adobe Illustrator 29.0.1, SVG Export Plug-In . SVG Version: 2.1.0 Build 192)  -->
  <defs>
    <style>
      .st0 {
        fill: #ffa726;
      }

      .st1 {
        fill: #fff;
      }
    </style>
  </defs>
  <g id="b78c3de8-284b-42ee-a443-cddcd0a3df38">
    <path class="st1" d="M146.1,27.1v-10.4h21.7v10.4h-4.6v46.7h-12.5l-23.8-36.9v26.6h4.8v10.3h-21.7v-10.3h4.7V27.1h-4.6v-10.4h17.2l23.6,37.4v-27.1h-4.8ZM203.4,73.8v-10.3h5.7l-2.5-8.2h-17.6l-2.5,8.2h6v10.3h-21.7v-10.3h4.2l15.6-46.8h15.1l15.2,46.8h4.1v10.3h-21.7ZM197.7,27.1l-5.7,18.6h11.6l-5.8-18.6ZM254.6,27.1v-10.4h24.4v10.4h-5.1l-15.3,46.7h-15.4l-14.8-46.7h-5.5v-10.4h24.5v10.4h-6.1l9.9,32.4,9.9-32.4h-6.6ZM284.1,27v-10.3h24.4v10.3h-6v36.5h6v10.3h-24.4v-10.3h5.9V27h-5.9ZM363.6,34.1h-11.7c-1.4-2-2.7-3.4-3.8-4.2-1.1-.8-2.4-1.5-3.6-1.8-1.3-.4-2.7-.6-4.1-.6h0c-2.1,0-4,.5-5.8,1.4-1.8,1-3.4,2.2-4.7,3.9-1.3,1.6-2.4,3.5-3.1,5.7-.7,2.1-1.1,4.4-1.1,6.8h0c0,2.4.4,4.7,1.1,6.9.7,2.1,1.8,4,3.1,5.6,1.3,1.6,2.8,2.8,4.6,3.8,1.8,1,3.8,1.4,6,1.4h0c1.5,0,2.9-.3,4.2-.8,1.3-.5,2.5-1.1,3.6-1.9,1.1-.8,2-1.7,2.8-2.8.8-1,1.4-2.1,1.9-3.3h0l12.1,3.4c-.8,2.5-1.9,4.7-3.4,6.8-1.5,2.1-3.3,3.9-5.5,5.5-2.1,1.5-4.5,2.8-7.2,3.6-2.6.9-5.5,1.3-8.6,1.3h0c-2.6,0-5-.3-7.4-1-2.4-.7-4.6-1.7-6.6-3-2.1-1.3-3.9-2.8-5.6-4.6-1.7-1.8-3.1-3.8-4.3-6-1.2-2.2-2.1-4.6-2.8-7.1-.7-2.5-1-5.2-1-7.9h0c0-4.1.7-8,2.1-11.5,1.4-3.6,3.4-6.7,5.9-9.4,2.5-2.7,5.4-4.8,8.8-6.3,3.3-1.5,6.9-2.3,10.8-2.3h0c3.1,0,5.7.4,7.8,1.2,2.1.8,4.4,2.3,6.9,4.5h8.5v12.7ZM402.5,73.8v-10.3h5.7l-2.5-8.2h-17.6l-2.5,8.2h6v10.3h-21.7v-10.3h4.2l15.6-46.8h15.1l15.2,46.8h4.1v10.3h-21.7ZM396.7,27.1l-5.7,18.6h11.5l-5.8-18.6ZM456.7,36.1v-3.3c-.1-.9-.4-1.7-.9-2.5-.5-.8-1.2-1.5-1.9-2-.7-.6-1.6-1-2.6-1.3-1-.3-2-.5-3-.5h0c-1,0-1.8.1-2.6.3-.8.2-1.6.5-2.2.9-.6.4-1.1,1-1.4,1.6-.4.7-.6,1.5-.6,2.4h0c0,1.1.2,2,.7,2.7.5.7,1.1,1.2,1.9,1.6.8.4,1.6.8,2.5,1,1,.3,1.9.5,2.8.8h0l10.4,3.5c1.4.5,2.8,1.2,4,2,1.2.9,2.3,1.9,3.3,3.2.9,1.3,1.6,2.7,2.1,4.4.6,1.6.8,3.5.8,5.5h0c0,2.8-.5,5.3-1.5,7.5s-2.5,4.2-4.3,5.9c-1.8,1.6-4,2.9-6.6,3.8-2.6.9-5.4,1.4-8.5,1.4h0c-2.2,0-4.2-.3-6.2-.8-1.9-.5-3.7-1.2-5.3-2.1-1.6-1-3-2.1-4.2-3.4-1.2-1.3-2.1-2.8-2.8-4.4h-3.9v-11.3h13.6v2.3c0,1.1.2,2.2.6,3.1.4,1,.9,1.8,1.7,2.5.7.7,1.7,1.2,2.8,1.7,1.1.4,2.4.6,3.9.6h0c2.3,0,4-.5,5.2-1.5,1.2-1.1,1.8-2.5,1.8-4.4h0c0-1-.2-1.8-.6-2.4-.4-.6-1-1.2-1.6-1.6-.7-.4-1.4-.8-2.2-1.1s-1.6-.6-2.4-.8h0l-8.7-2.8c-1.6-.5-3.2-1.2-4.7-2.1-1.5-.9-2.9-2-4.1-3.4-1.1-1.4-2.1-3-2.8-4.8s-1-3.9-1-6.2h0c0-2.7.5-5.1,1.5-7.3,1-2.1,2.4-3.9,4.2-5.3,1.8-1.5,3.9-2.6,6.4-3.3,2.5-.8,5.2-1.2,8.2-1.2h0c2.4,0,4.5.3,6.5.8,2,.6,3.8,1.3,5.3,2.1,1.5.9,2.9,2,4,3.1,1.1,1.1,1.9,2.4,2.5,3.6h3.8v11.3h-13.7ZM485.9,73.8v-10.3h5.9V26.7h-6.9v7.4h-12.2v-17.4h51.9v17.4h-12.3v-7.4h-7.9v36.8h6v10.3h-24.4Z"/>
  </g>
  <g id="d6842e1e-05ee-4a62-8aba-ac3d10797244">
    <path class="st0" d="M87.3,41.3h-7.7c-.7-6.3-3.2-12.3-7.2-17.3l5.5-5.5c1.5-1.5,1.5-3.8,0-5.3s-3.8-1.5-5.3,0l-5.5,5.5c-5-4-11-6.5-17.3-7.2V3.8c0-2.1-1.7-3.7-3.8-3.7-2,0-3.7,1.7-3.7,3.7v7.7c-6.3.7-12.3,3.2-17.3,7.2l-5.5-5.5c-1.5-1.5-3.8-1.5-5.3,0-1.5,1.5-1.5,3.8,0,5.3l5.5,5.5c-4,5-6.5,11-7.2,17.3h-7.7c-2.1,0-3.8,1.7-3.8,3.8s1.7,3.8,3.8,3.8h7.7c.7,6.3,3.2,12.3,7.2,17.3l-5.5,5.5c-1.5,1.5-1.5,3.8,0,5.3,1.5,1.5,3.8,1.5,5.3,0h0l5.5-5.5c5,4,11,6.5,17.3,7.2v7.7c0,2.1,1.7,3.8,3.8,3.8s3.8-1.7,3.8-3.8v-7.7c6.3-.7,12.3-3.2,17.3-7.2l5.5,5.5c1.5,1.4,3.9,1.4,5.3,0,1.4-1.5,1.4-3.8,0-5.2l-5.5-5.5c4-5,6.5-11,7.2-17.3h7.7c2.1,0,3.8-1.7,3.8-3.8s-1.7-3.8-3.8-3.8M49.8,19.1c4.3.6,8.4,2.3,11.9,5l-11.9,11.9s0-16.9,0-16.9ZM42.2,19.1v16.9l-11.9-11.9c3.5-2.6,7.6-4.3,11.9-5M25,29.3l11.9,11.9h-16.9c.6-4.3,2.3-8.4,5-11.9M20,48.8h16.9l-11.9,11.9c-2.6-3.5-4.3-7.6-5-11.9M42.2,71c-4.3-.6-8.4-2.3-11.9-5l11.9-11.9v16.9ZM46,49.3c-2.3,0-4.3-1.8-4.3-4.1s1.8-4.3,4.1-4.3c0,0,.1,0,.2,0,2.3,0,4.2,2,4.1,4.3,0,2.3-1.9,4.1-4.1,4.1M49.8,71v-16.9l11.9,11.9c-3.5,2.6-7.6,4.3-11.9,5M67,60.7l-11.9-11.9h16.9c-.6,4.3-2.3,8.4-5,11.9M55.1,41.3l11.9-11.9c2.6,3.5,4.3,7.6,5,11.9h-16.9Z"/>
  </g>
</svg>